<?xml version="1.0" encoding="utf-8"?>
<!-- Svg Vector Icons : http://www.onlinewebfonts.com/icon -->
<!DOCTYPE svg PUBLIC "-//W3C//DTD SVG 1.1//EN" "http://www.w3.org/Graphics/SVG/1.1/DTD/svg11.dtd">
<svg version="1.1" xmlns="http://www.w3.org/2000/svg" xmlns:xlink="http://www.w3.org/1999/xlink" x="0px" y="0px" viewBox="0 0 1000 1000" enable-background="new 0 0 1000 1000" xml:space="preserve">
<metadata> Svg Vector Icons : http://www.onlinewebfonts.com/icon </metadata>
<g><path d="M184.8,134h43.8v741.1h-43.8V134z"/><path d="M774,134h43.8v741.1H774V134z"/><path d="M280,81.2h43.8v782.3H280V81.2z"/><path d="M676.3,81.2H720v782.3h-43.8V81.2z"/><path d="M280,56.8h440v43.8H280V56.8z"/><path d="M191.2,134h95.2v43.8h-95.2V134z"/><path d="M707.1,134h95.2v43.8h-95.2V134z"/><path d="M367.5,155.9h58.3v96.5h-58.3V155.9L367.5,155.9z"/><path d="M367.5,312h58.3v96.5h-58.3V312z"/><path d="M466.9,312h58.3v96.5h-58.3V312L466.9,312z"/><path d="M573.3,312h58.3v96.5h-58.3V312z"/><path d="M573.3,472.4h58.3v96.5h-58.3V472.4z"/><path d="M470.8,472.4h58.3v96.5h-58.3V472.4z"/><path d="M367.5,472.4h58.3v96.5h-58.3V472.4z"/><path d="M367.5,630.2h58.3v96.5h-58.3V630.2z"/><path d="M470.8,630.2h58.3v96.5h-58.3V630.2z"/><path d="M573.3,630.2h58.3v96.5h-58.3V630.2z"/><path d="M466.9,155.9h58.3v96.5h-58.3V155.9L466.9,155.9z"/><path d="M573.3,155.9h58.3v96.5h-58.3V155.9L573.3,155.9z"/><path d="M990,903.4c0,22-21.5,39.8-48,39.8H58c-26.5,0-48-17.8-48-39.8l0,0c0-22,21.5-39.8,48-39.8h884C968.5,863.5,990,881.3,990,903.4L990,903.4z"/><path d="M102.3,689.8c-27.6,0-49.8,22.3-49.8,49.8c0,27.6,22.3,49.8,49.8,49.8c28.3,0,49.8-13.1,49.8-49.8C152.1,712.2,129.8,689.8,102.3,689.8z M102.3,763.5c-13.1,0-23.8-10.7-23.8-23.8c0-13.1,10.7-23.8,23.8-23.8c13.1,0,23.8,10.7,23.8,23.8S115.4,763.5,102.3,763.5z"/><path d="M86.7,784v79.5h31.2c0,0,0-50.8,0-79.5C112.2,784,102.3,793.9,86.7,784z"/><path d="M893.6,689.8c-27.6,0-49.8,22.3-49.8,49.8c0,27.6,22.3,49.8,49.8,49.8c28.3,0,49.8-13.1,49.8-49.8C943.4,712.2,921.1,689.8,893.6,689.8z M893.6,763.5c-13.1,0-23.8-10.7-23.8-23.8c0-13.1,10.7-23.8,23.8-23.8c13.1,0,23.8,10.7,23.8,23.8C917.4,752.8,906.7,763.5,893.6,763.5z"/><path d="M878,784v79.5h31.2c0,0,0-50.8,0-79.5C903.6,784,893.6,793.9,878,784z"/></g>
</svg>