<?xml version="1.0" encoding="utf-8"?>
<!-- Svg Vector Icons : http://www.onlinewebfonts.com/icon -->
<!DOCTYPE svg PUBLIC "-//W3C//DTD SVG 1.1//EN" "http://www.w3.org/Graphics/SVG/1.1/DTD/svg11.dtd">
<svg version="1.1" xmlns="http://www.w3.org/2000/svg" xmlns:xlink="http://www.w3.org/1999/xlink" x="0px" y="0px" viewBox="0 0 1000 1000" enable-background="new 0 0 1000 1000" xml:space="preserve">
<metadata> Svg Vector Icons : http://www.onlinewebfonts.com/icon </metadata>
<g><g transform="translate(0.000000,511.000000) scale(0.100000,-0.100000)"><path d="M158,4952l-58-58V110v-4784l58-58l58-58h944h944l58,58c54,54,58,70,58,210v152h2780h2780v-152c0-140,4-156,58-210l58-58h944h944l58,58l58,58V110v4784l-58,58l-58,58H5000H216L158,4952z M9480,110v-4480h-640h-640v3540c0,3928,10,3632-130,3692c-102,42-6038,42-6140,0c-140-60-130,236-130-3692v-3540h-640H520V110v4480h4480h4480V110z M4780-740v-3190H3500H2220v3190v3190h1280h1280V-740z M7780-740v-3190H6500H5220v3190v3190h1280h1280V-740z"/><path d="M3630,4138c-74-38-482-438-522-512c-48-92-36-172,40-248c48-48,86-68,132-68c90,0,132,26,296,186l144,142l146-142c162-160,204-186,294-186c88,0,200,112,200,198c0,100-40,156-284,396C3804,4172,3750,4200,3630,4138z"/><path d="M5766,4142c-84-38-136-142-118-236c10-54,68-124,268-320c258-256,314-292,418-266c62,14,512,448,558,534c36,70,36,124-4,198c-36,72-150,126-226,108c-28-6-126-86-216-176l-166-164l-164,164C5936,4164,5876,4190,5766,4142z"/><path d="M8728,712c-72-44-116-150-96-230c6-28,40-74,72-102c168-140,412,36,328,236c-30,76-118,134-196,134C8810,750,8762,732,8728,712z"/><path d="M8704-160c-76-64-96-144-56-236c30-74,116-134,192-134c74,0,162,60,192,134C9116-196,8872-20,8704-160z"/></g></g>
</svg>